<?xml version="1.0" encoding="utf-8"?>
<!-- Generator: Adobe Illustrator 24.3.0, SVG Export Plug-In . SVG Version: 6.00 Build 0)  -->
<svg version="1.1" xmlns="http://www.w3.org/2000/svg" xmlns:xlink="http://www.w3.org/1999/xlink" x="0px" y="0px"
	 viewBox="0 0 534.9 426.9" style="enable-background:new 0 0 534.9 426.9;" xml:space="preserve">
<style type="text/css">
	.st0{display:none;}
</style>
<g id="Layer_2" class="st0">
	
		<image style="display:inline;overflow:visible;" width="512" height="512" xlink:href="the-solutioners-icon.png"  transform="matrix(0.9985 0 0 0.9985 13.8301 -44.1074)">
	</image>
</g>
<g id="Layer_1">
	
		<image style="display:none;overflow:visible;" width="1226" height="744" xlink:href="../../../../../../Pictures/Solutioner Icons/sds-logo.jpg"  transform="matrix(1 0 0 1 -348.875 -112.9375)">
	</image>
	<polygon points="12.3,318.7 12.3,305.1 35.3,305.1 35.3,286.8 12.3,286.8 12.3,275.6 49.5,275.6 49.5,301.5 102.1,301.5 271,171.6 
		431.7,303.3 487.8,303.3 487.8,275 525,275 525,288.6 502.6,288.6 502.6,303.9 525,303.9 525,318.7 421.1,318.7 271.5,197.1 
		118,318.7 	"/>
	<polygon points="12.3,272.6 12.3,257.8 33.6,241.9 33.6,205.3 62.5,205.3 62.5,215.9 103.9,182.2 174.2,241.9 164.1,249.6 
		103.9,197.6 	"/>
	<polygon points="364.3,242.8 374.4,250.7 437,198.8 525,270.2 525,256.7 503.8,239.5 503.8,203.5 474.2,203.5 474.2,212.9 
		435.8,182.2 	"/>
	<polygon points="199.6,200.5 167.1,193.4 167.1,113.7 199.6,86.5 	"/>
	<polygon points="206.6,83 206.6,200.5 220.6,204.3 240.9,188.7 240.9,111.3 	"/>
	<polygon points="369.7,135.6 369.7,194.6 396.3,186.4 396.3,154.5 	"/>
	<polygon points="344.3,152.1 364.3,137.9 364.3,194.6 344.3,200.5 	"/>
	<polygon points="325.4,209.4 361.4,238.9 424.6,185.8 	"/>
	<polygon points="113.9,185.8 177.1,238.9 216.7,208.2 	"/>
	<polygon points="246.2,185.8 271.6,165.1 282.9,175.4 282.9,43.4 246.2,80.6 	"/>
	<polygon points="292.9,35.1 292.9,182.2 321.2,205.3 336.6,200.5 336.6,194.6 336.6,68.2 	"/>
	<rect x="33" y="188.7" width="28.4" height="11.8"/>
	<rect x="474.2" y="188.7" width="30.1" height="11.8"/>
	<rect x="246.2" y="250.7" width="19.5" height="19.5"/>
	<rect x="268.7" y="250.7" width="19.5" height="19.5"/>
	<rect x="246.2" y="272.6" width="19.5" height="19.5"/>
	<rect x="268.7" y="272.6" width="19.5" height="19.5"/>
	<rect x="82.6" y="242.5" width="13.9" height="13.9"/>
	<rect x="98" y="242.5" width="13.9" height="13.9"/>
	<rect x="82.6" y="257.9" width="13.9" height="13.9"/>
	<rect x="98" y="257.9" width="13.9" height="13.9"/>
	<rect x="424.6" y="242.5" width="13.9" height="13.9"/>
	<rect x="440" y="242.5" width="13.9" height="13.9"/>
	<rect x="424.6" y="257.9" width="13.9" height="13.9"/>
	<rect x="440" y="257.9" width="13.9" height="13.9"/>
</g>
</svg>
