<?xml version="1.0" encoding="utf-8"?>
<!-- Generator: Adobe Illustrator 24.3.0, SVG Export Plug-In . SVG Version: 6.00 Build 0)  -->
<svg version="1.1" id="Layer_1" xmlns="http://www.w3.org/2000/svg" xmlns:xlink="http://www.w3.org/1999/xlink" x="0px" y="0px"
	 viewBox="0 0 1073.2 1080" style="enable-background:new 0 0 1073.2 1080;" xml:space="preserve">
<path d="M108.5,51.4h848.8c0,0,59.9,0,59.9,60.8c0,36.3,0,820.1,0,850.5c0,18.6,0,67.1-65,67.1c-51.9,0-227.8,0-227.8,0V650.5H851
	l13.5-146.8H722.8V383.9c0,0-5.1-46.4,46.4-46.4s103.8,0,103.8,0V206.7c0,0-119.8-18.6-175.5-1.7s-119.8,69.2-124.9,162
	s0,136.7,0,136.7H442.6v148.5h124.9v377.6H106.8c0,0-52.1,0-52.1-58.6c0-40.3,0-869.1,0-869.1S54.7,51.4,108.5,51.4z"/>
</svg>
